<svg xmlns="http://www.w3.org/2000/svg" aria-hidden="true" style="position:absolute;width:0;height:0;overflow:hidden">
  <defs>
    <symbol id="icon-antenna-1-1" viewBox="0 0 32 32">
      <path fill="#2e2f42" d="m30.773 22.098-8.443-8.505.937-4.615c.242.094.499.143.759.145h.032a2.16 2.16 0 1 0-2.029-1.42l-.005-.015-4.96.605L8.973.16A.53.53 0 0 0 8.597 0a.536.536 0 0 0-.373.155L6.711 1.659a.53.53 0 0 0 0 .754l.814.825C6.382 5.3 5.709 7.76 5.709 10.377c0 4.106 1.656 7.825 4.336 10.526l-.001-.001a.506.506 0 0 0 .146.098 2.986 2.986 0 0 0-.052.546v6.188h-6.4A2.669 2.669 0 0 0 1.071 30.4v1.067c0 .295.239.533.534.533h24.534a.535.535 0 0 0 .534-.534v-1.067a2.67 2.67 0 0 0-2.667-2.666h-6.4v-2.742a14.784 14.784 0 0 0 10.166-1.502l-.077.039.819.823a.534.534 0 0 0 .377.16.532.532 0 0 0 .373-.155l1.512-1.505a.535.535 0 0 0 0-.754zM23.28 6.233a1.067 1.067 0 1 1 .752 1.822h-.003a1.066 1.066 0 0 1-.746-1.822h-.002zm-1.256 3.505-.599 2.945-1.175-1.182 1.774-1.764zm-.605-.902-1.92 1.909-1.485-1.493 3.405-.415zM24.004 28.8a1.6 1.6 0 0 1 1.6 1.6v.534H2.138V30.4a1.6 1.6 0 0 1 1.6-1.6h20.267zm-7.466-2.134v1.067h-5.334v-1.067h5.334zM11.204 25.6v-4.053c0-1.294 1.197-2.346 2.666-2.346s2.667 1.053 2.667 2.346V25.6h-5.334zm6.4-1.696v-2.357c0-1.882-1.675-3.413-3.733-3.413h-.059c-1.353 0-2.54.707-3.213 1.771l-.009.016a13.816 13.816 0 0 1-3.811-9.549c0-2.314.567-4.496 1.569-6.414l-.036.077 18.602 18.709c-1.823.947-3.98 1.502-6.266 1.502-1.079 0-2.128-.124-3.136-.357l.093.018zm11.289-.683L7.836 2.041l.755-.752 7.935 7.98c.003 0 .006.007.009.009l13.114 13.191-.757.752z" style="fill:var(--color1, #2e2f42)"/>
      <path fill="#4d5ae5" d="M13.876 20.267h-.007a1.6 1.6 0 0 0-.003 3.2h.007a1.6 1.6 0 0 0 .003-3.2zm.373 1.978a.534.534 0 0 1-.91-.379v-.002a.533.533 0 0 1 .53-.53.535.535 0 0 1 .374.912h.005z" style="fill:var(--color2, #4d5ae5)"/>
    </symbol>
    <symbol id="icon-envelope-o" viewBox="0 0 28 28">
<path d="M26 23.5v-12c-0.328 0.375-0.688 0.719-1.078 1.031-2.234 1.719-4.484 3.469-6.656 5.281-1.172 0.984-2.625 2.188-4.25 2.188h-0.031c-1.625 0-3.078-1.203-4.25-2.188-2.172-1.813-4.422-3.563-6.656-5.281-0.391-0.313-0.75-0.656-1.078-1.031v12c0 0.266 0.234 0.5 0.5 0.5h23c0.266 0 0.5-0.234 0.5-0.5zM26 7.078c0-0.391 0.094-1.078-0.5-1.078h-23c-0.266 0-0.5 0.234-0.5 0.5 0 1.781 0.891 3.328 2.297 4.438 2.094 1.641 4.188 3.297 6.266 4.953 0.828 0.672 2.328 2.109 3.422 2.109h0.031c1.094 0 2.594-1.437 3.422-2.109 2.078-1.656 4.172-3.313 6.266-4.953 1.016-0.797 2.297-2.531 2.297-3.859zM28 6.5v17c0 1.375-1.125 2.5-2.5 2.5h-23c-1.375 0-2.5-1.125-2.5-2.5v-17c0-1.375 1.125-2.5 2.5-2.5h23c1.375 0 2.5 1.125 2.5 2.5z"></path>
</symbol>
<symbol id="icon-phone" viewBox="0 0 22 28">
<path d="M22 19.375c0 0.562-0.25 1.656-0.484 2.172-0.328 0.766-1.203 1.266-1.906 1.656-0.922 0.5-1.859 0.797-2.906 0.797-1.453 0-2.766-0.594-4.094-1.078-0.953-0.344-1.875-0.766-2.734-1.297-2.656-1.641-5.859-4.844-7.5-7.5-0.531-0.859-0.953-1.781-1.297-2.734-0.484-1.328-1.078-2.641-1.078-4.094 0-1.047 0.297-1.984 0.797-2.906 0.391-0.703 0.891-1.578 1.656-1.906 0.516-0.234 1.609-0.484 2.172-0.484 0.109 0 0.219 0 0.328 0.047 0.328 0.109 0.672 0.875 0.828 1.188 0.5 0.891 0.984 1.797 1.5 2.672 0.25 0.406 0.719 0.906 0.719 1.391 0 0.953-2.828 2.344-2.828 3.187 0 0.422 0.391 0.969 0.609 1.344 1.578 2.844 3.547 4.813 6.391 6.391 0.375 0.219 0.922 0.609 1.344 0.609 0.844 0 2.234-2.828 3.187-2.828 0.484 0 0.984 0.469 1.391 0.719 0.875 0.516 1.781 1 2.672 1.5 0.313 0.156 1.078 0.5 1.188 0.828 0.047 0.109 0.047 0.219 0.047 0.328z"></path>
</symbol>
    <symbol id="icon-astronaut" viewBox="0 0 32 32">
      <path fill="#4d5ae5" d="M31.974 4.524a.535.535 0 0 0-.427-.362h-.003l-1.911-.278-.855-1.731c-.179-.365-.776-.365-.956 0l-.855 1.731-1.91.278a.534.534 0 0 0-.296.909l1.383 1.348-.326 1.903a.533.533 0 0 0 .774.561l1.709-.899 1.709.899a.534.534 0 0 0 .773-.565v.003l-.326-1.903L31.84 5.07a.535.535 0 0 0 .134-.55l.001.004zm-2.463 1.327a.534.534 0 0 0-.153.472l.191 1.114-1-.526a.524.524 0 0 0-.499.001l.003-.001-1 .526.191-1.114a.53.53 0 0 0-.153-.472l-.81-.79 1.119-.162a.533.533 0 0 0 .401-.292l.5-1.013.501 1.013a.535.535 0 0 0 .402.292l1.119.162-.809.79zm-3.377 14.671h-1.067v1.067h1.067v-1.067zm0 2.133h-1.067v1.067h1.067v-1.067z" style="fill:var(--color2, #4d5ae5)"/>
      <path fill="#4d5ae5" d="M27.2 21.589h-1.067v1.067H27.2v-1.067zm-2.133 0H24v1.067h1.067v-1.067zm-2.667 4.8h-1.067v1.067H22.4v-1.067zm0 2.134h-1.067v1.067H22.4v-1.067zm1.067-1.067H22.4v1.067h1.067v-1.067zM21.334 27.456h-1.067v1.067h1.067v-1.067zM16 24.256h-1.066v1.067H16v-1.067zm0 2.133h-1.066v1.067H16v-1.067zm1.067-1.066H16v1.067h1.067v-1.067zm-2.133 0h-1.067v1.067h1.067v-1.067zM5.867 6.122H4.801v1.066h1.066V6.122zm0 2.133H4.801v1.067h1.066V8.256zm1.066-1.066H5.867v1.067h1.066V7.189zm-2.133 0H3.733v1.067H4.8V7.189z" style="fill:var(--color2, #4d5ae5)"/>
      <path fill="#2e2f42" d="M24.715 14.159a1.778 1.778 0 0 0-1.179-.704l-.009-.001a1.764 1.764 0 0 0-1.344.356l.004-.003-1.252.96-1.898 1.417-1.358-.541c2.421-1.086 4.114-3.508 4.114-6.32 0-3.823-3.122-6.933-6.961-6.933S7.87 5.5 7.87 9.323a6.86 6.86 0 0 0 1.12 3.758l-2.769-.024c-.008 0-.015.005-.024.005a.52.52 0 0 0-.155.03c-.013.005-.026.008-.038.014-.006.002-.013.003-.019.007L2.751 14.71l-1.893.911a.429.429 0 0 0-.064.036l.001-.001a1.78 1.78 0 0 0-.593 2.304l-.005-.01c.22.429.595.745 1.056.89a1.772 1.772 0 0 0 1.388-.133l-.009.005 1.388-.738 2.264-1.169 1.357-.008-5.442 5.415-.002.002-1.339 1.333c-.303.299-.49.714-.49 1.173v.005a1.668 1.668 0 0 0 1.669 1.663 1.67 1.67 0 0 0 1.18-.485l1.314-1.308 1.74-1.3.901.897L4.07 27.28c-.303.299-.49.714-.49 1.173v.005a1.669 1.669 0 0 0 1.67 1.664c.428 0 .855-.162 1.18-.485l3.482-3.466.001-.002 1.01-1-.004-.003c.007-.006.015-.009.022-.015l5.166-5.658 3.471.494a.522.522 0 0 0 .266-.035l-.003.001c.017-.006.033-.015.05-.023.019-.009.039-.015.057-.027l3.213-2.134c.012-.008.018-.02.029-.029.012-.01.029-.014.04-.025l1.272-1.192a1.777 1.777 0 0 0 .209-2.366l.003.005zM2.13 17.77a.714.714 0 0 1-.558.052.717.717 0 0 1-.215-1.258l.002-.001 1.314-.632.316.925.133.388-.993.527zm3.498-1.827-1.548.8-.255-.747-.183-.537 2.026-1-.04 1.483zm15.099-6.621a5.79 5.79 0 0 1-.599 2.559l-4.181-1.899a1.86 1.86 0 0 0-.782-1.384l-.006-.004 1.464-4.86c2.378.755 4.105 2.974 4.105 5.587zm-11.789 0c0-3.235 2.644-5.867 5.894-5.867.253 0 .5.022.745.053l-1.432 4.753c-.019 0-.037-.005-.057-.005h-.001a1.872 1.872 0 0 0-1.872 1.866 1.873 1.873 0 0 0 1.872 1.867h.001c.694 0 1.294-.383 1.618-.944l3.863 1.755a5.891 5.891 0 0 1-4.736 2.39c-3.25 0-5.895-2.633-5.895-5.867zm5.957.8c0 .441-.362.8-.806.8h-.002a.804.804 0 0 1-.804-.8c0-.441.361-.8.806-.8s.806.359.806.8zM2.465 25.146a.609.609 0 0 1-.855 0 .591.591 0 0 1 0-.844l.962-.959.851.848-.958.955zm3.213 3.734a.606.606 0 0 1-.855.001.591.591 0 0 1 0-.844l.963-.959.851.848-.96.955zm3.483-3.469-.002.001-1.765 1.76-.851-.848 1.763-1.756.002-.001c.04-.04.065-.088.09-.135.007-.014.02-.026.026-.04.017-.041.019-.085.025-.129.004-.024.014-.047.014-.073 0-.035-.012-.07-.02-.105-.007-.032-.007-.065-.018-.096a.511.511 0 0 0-.091-.137c-.01-.012-.014-.027-.025-.038h-.001l-.001-.002-1.607-1.6c-.017-.017-.039-.024-.058-.038a.491.491 0 0 0-.084-.056l-.003-.001a.477.477 0 0 0-.09-.032l-.003-.001a.502.502 0 0 0-.101-.02h-.022a.49.49 0 0 0-.077.006h.003a.59.59 0 0 0-.108.021l.004-.001a.502.502 0 0 0-.096.046l.002-.001c-.02.011-.043.015-.061.029l-1.774 1.324-.901-.897 2.399-2.386 4.36 4.289-.927.919zm6.818-7.017c-.015-.002-.03.004-.045.003l-.026-.001a.562.562 0 0 0-.092.008h.003a.5.5 0 0 0-.187.069l.002-.001a.554.554 0 0 0-.083.061c-.013.011-.028.017-.04.029l-4.698 5.146-4.328-4.257 2.833-2.818a.535.535 0 0 0-.378-.911h-.001l-2.219.013.027-1.607 3.104.027a6.928 6.928 0 0 0 4.978 2.101h.003c.438 0 .864-.045 1.279-.122.04.032.079.064.13.085l2.409.96.152.758.178.885-3.003-.427zm4.041.179-.314-1.558 1.447-1.08.947 1.257-2.08 1.381zm3.754-2.831-.838.785-.931-1.236.831-.637a.73.73 0 0 1 .543-.143.716.716 0 0 1 .395 1.231z" style="fill:var(--color1, #2e2f42)"/>
      <path fill="#2e2f42" d="m13.602 18.544-2.143-2.134a.53.53 0 0 0-.752 0l-2.143 2.134a.533.533 0 0 0 0 .756l2.143 2.133a.53.53 0 0 0 .752 0l2.143-2.133a.532.532 0 0 0 0-.756zm-2.519 1.759-1.386-1.381 1.386-1.381 1.387 1.381-1.387 1.381zm6.081-15.232-.258 1.035c.071.018 1.738.452 1.738 2.149h1.067c0-2.017-1.666-2.966-2.546-3.185zm2.547 4.251h-1.067v1.067h1.067V9.322z" style="fill:var(--color1, #2e2f42)"/>
    </symbol>
   <symbol id="icon-client1" viewBox="0 0 59 32">
<path d="M28.637 3.391h-0.078c-0.12-0.007-0.24-0.010-0.36-0.013h-0.26c-0.227 0-0.458 0.006-0.688 0.017-0.008-0.001-0.017-0.001-0.026-0.001s-0.018 0-0.027 0.001l0.001-0c-2.206 0.129-4.255 0.68-6.106 1.575l0.096-0.042-0.247 0.119v12.653l0.578-0.197c0.507-0.174 1.048-0.331 1.607-0.477 1.382-0.37 2.973-0.592 4.612-0.614l0.013-0v1.662c-0.207 0.001-0.407 0.007-0.609 0.017h-0.048c-1.299 0.073-2.516 0.268-3.688 0.575l0.129-0.029c-1.61 0.409-3.021 0.975-4.333 1.7l0.093-0.047v-16.227c1.281-0.761 2.762-1.382 4.331-1.784l0.118-0.026c1.256-0.338 2.7-0.535 4.189-0.541h0.247c0.292 0.007 0.577 0.021 0.845 0.041 0.705 0.050 1.403 0.161 2.089 0.333v1.636c-0.583-0.143-1.274-0.251-1.981-0.303l-0.042-0.002-0.042-0.003c-0.141-0.012-0.282-0.024-0.414-0.024zM31.516 5.063c0.363 0.028 0.739 0.041 1.119 0.041 1.569-0.006 3.086-0.212 4.533-0.594l-0.125 0.028c1.61-0.411 3.020-0.977 4.331-1.7l-0.094 0.047v15.937c-1.281 0.761-2.762 1.381-4.331 1.783l-0.118 0.026c-1.257 0.337-2.7 0.533-4.189 0.539h-0.004c-0.031 0-0.067 0-0.103 0-1.093 0-2.153-0.137-3.166-0.394l0.089 0.019v-16.041c0.246 0.057 0.499 0.109 0.756 0.153 0.422 0.071 0.867 0.123 1.301 0.155zM39.627 5.187l-0.578 0.194c-0.531 0.179-1.069 0.339-1.607 0.481-1.44 0.385-3.094 0.61-4.8 0.616h-0.004c-0.377 0-0.724-0.010-1.059-0.032l-0.461-0.030v13.015l0.396 0.034c0.367 0.033 0.746 0.049 1.127 0.049 1.347-0.006 2.649-0.184 3.89-0.514l-0.107 0.024c1.134-0.288 2.118-0.652 3.051-1.104l-0.094 0.041 0.247-0.119v-12.656z"></path>
<path d="M20.421 25.835c-0.155-0.161-0.373-0.261-0.613-0.261-0.011 0-0.021 0-0.032 0.001l0.002-0c-0.004-0-0.008-0-0.013-0-0.129 0-0.252 0.026-0.365 0.072l0.006-0.002c-0.22 0.088-0.39 0.26-0.473 0.475l-0.002 0.006c-0.046 0.114-0.068 0.236-0.066 0.359v2.168c-0.006 0.153 0.024 0.305 0.085 0.445 0.051 0.111 0.125 0.21 0.217 0.291 0.086 0.073 0.188 0.126 0.297 0.154 0.106 0.029 0.215 0.045 0.324 0.045 0.121 0.001 0.24-0.025 0.35-0.075 0.325-0.145 0.548-0.465 0.549-0.837v-0.242h-0.567v0.193c0 0.004 0 0.009 0 0.013 0 0.065-0.012 0.127-0.035 0.183l0.001-0.003c-0.019 0.048-0.047 0.089-0.082 0.122l-0 0c-0.065 0.050-0.147 0.081-0.237 0.083h-0c-0.010 0.001-0.021 0.002-0.033 0.002-0.095 0-0.18-0.046-0.232-0.118l-0.001-0.001c-0.048-0.076-0.076-0.169-0.076-0.269 0-0.008 0-0.015 0-0.023l-0 0.001v-2.022c-0.003-0.112 0.021-0.223 0.070-0.324 0.052-0.080 0.142-0.133 0.244-0.133 0.012 0 0.023 0.001 0.035 0.002l-0.001-0c0.003-0 0.007-0 0.011-0 0.099 0 0.187 0.048 0.242 0.122l0.001 0.001c0.059 0.076 0.094 0.173 0.094 0.279 0 0.004-0 0.009-0 0.013v-0.001 0.187h0.561v-0.221c0-0.003 0-0.006 0-0.010 0-0.133-0.025-0.26-0.072-0.377l0.002 0.007c-0.044-0.119-0.109-0.22-0.19-0.306l0 0zM23.788 25.811c-0.173-0.147-0.398-0.237-0.644-0.239h-0c-0.115 0-0.23 0.021-0.338 0.061-0.234 0.084-0.418 0.256-0.517 0.475l-0.002 0.006c-0.057 0.132-0.086 0.275-0.083 0.42v2.079c-0.004 0.146 0.025 0.291 0.083 0.426 0.051 0.112 0.126 0.211 0.219 0.291 0.087 0.080 0.189 0.143 0.299 0.183 0.109 0.040 0.223 0.061 0.338 0.061 0.248-0.001 0.474-0.093 0.646-0.245l-0.001 0.001c0.090-0.081 0.163-0.18 0.214-0.291 0.058-0.134 0.086-0.279 0.083-0.426v-2.079c0-0.005 0-0.012 0-0.018 0-0.145-0.031-0.283-0.086-0.408l0.003 0.006c-0.053-0.119-0.125-0.22-0.213-0.304l-0-0zM23.523 28.614c0.001 0.010 0.001 0.021 0.001 0.032 0 0.106-0.044 0.201-0.114 0.269l-0 0c-0.072 0.060-0.165 0.097-0.267 0.097s-0.195-0.037-0.267-0.098l0.001 0c-0.070-0.068-0.114-0.163-0.114-0.268 0-0.012 0.001-0.023 0.002-0.035l-0 0.001v-2.079c-0.001-0.010-0.001-0.021-0.001-0.032 0-0.105 0.044-0.201 0.114-0.268l0-0c0.072-0.060 0.165-0.097 0.267-0.097s0.195 0.037 0.267 0.098l-0.001-0c0.070 0.068 0.114 0.163 0.114 0.268 0 0.011-0 0.023-0.002 0.034l0-0.001v2.080zM28.21 29.543v-3.937h-0.545l-0.716 2.084h-0.010l-0.722-2.083h-0.539v3.936h0.562v-2.394h0.010l0.55 1.693h0.281l0.555-1.693h0.010v2.394h0.562zM31.405 25.882c-0.086-0.097-0.196-0.171-0.318-0.215-0.115-0.039-0.248-0.061-0.386-0.061-0.008 0-0.015 0-0.023 0l0.001-0h-0.835v3.937h0.561v-1.538h0.289c0.175 0.008 0.349-0.029 0.506-0.107 0.129-0.072 0.233-0.175 0.306-0.297l0.002-0.004c0.065-0.105 0.109-0.221 0.129-0.343 0.019-0.124 0.030-0.267 0.030-0.412 0-0.012-0-0.025-0-0.037l0 0.002c0.006-0.189-0.013-0.378-0.055-0.562-0.040-0.142-0.111-0.264-0.207-0.362l0 0zM31.115 27.082c-0.003 0.075-0.021 0.145-0.053 0.208l0.001-0.003c-0.032 0.060-0.082 0.108-0.143 0.137l-0.002 0.001c-0.069 0.032-0.15 0.050-0.235 0.050-0.010 0-0.020-0-0.030-0.001l0.001 0h-0.256v-1.338h0.289c0.008-0 0.017-0.001 0.027-0.001 0.082 0 0.16 0.018 0.229 0.051l-0.003-0.001c0.058 0.034 0.103 0.083 0.131 0.143l0.001 0.002c0.031 0.069 0.047 0.144 0.049 0.219v0.262c0 0.091 0.006 0.186 0 0.27h-0.006zM34.062 25.606h-0.46l-0.867 3.937h0.561l0.165-0.846h0.765l0.165 0.846h0.561l-0.889-3.937zM33.544 28.161l0.276-1.427h0.010l0.274 1.427h-0.561zM37.686 27.977h-0.010l-0.847-2.371h-0.539v3.937h0.561v-2.367h0.011l0.857 2.367h0.528v-3.936h-0.561v2.371zM41.113 25.606l-0.451 1.566h-0.011l-0.451-1.566h-0.593l0.77 2.273v1.663h0.561v-1.663l0.77-2.273h-0.594zM18.857 30.654h0.27v0.758h0.183v-0.759h0.269v-0.155h-0.722v0.156zM21.13 30.498l-0.354 0.914h0.195l0.075-0.208h0.365l0.078 0.208h0.2l-0.363-0.914h-0.195zM21.101 31.051l0.124-0.339 0.124 0.339h-0.249zM23.376 31.075h0.211v0.118c-0.059 0.048-0.135 0.077-0.217 0.077h-0c-0.004 0-0.009 0-0.013 0-0.073 0-0.139-0.034-0.181-0.087l-0-0c-0.043-0.061-0.068-0.136-0.068-0.218 0-0.007 0-0.014 0.001-0.021l-0 0.001c0-0.203 0.088-0.305 0.263-0.305 0.006-0.001 0.013-0.001 0.020-0.001 0.090 0 0.166 0.062 0.187 0.145l0 0.001 0.181-0.035c-0.039-0.178-0.167-0.269-0.387-0.269-0.004-0-0.008-0-0.012-0-0.118 0-0.226 0.045-0.308 0.118l0-0c-0.082 0.081-0.133 0.193-0.133 0.317 0 0.012 0 0.024 0.001 0.036l-0-0.002c-0 0.006-0 0.014-0 0.021 0 0.123 0.044 0.235 0.118 0.322l-0.001-0.001c0.081 0.083 0.194 0.135 0.319 0.135 0.010 0 0.020-0 0.029-0.001l-0.001 0c0.004 0 0.010 0 0.015 0 0.144 0 0.275-0.055 0.373-0.146l-0 0v-0.36h-0.396v0.154zM25.67 30.498h-0.185v0.914h0.64v-0.155h-0.455v-0.759zM27.61 30.498h-0.185v0.914h0.185v-0.914zM29.506 31.109l-0.374-0.61h-0.179v0.914h0.171v-0.597l0.367 0.597h0.184v-0.914h-0.17v0.611zM31.221 31.010h0.455v-0.155h-0.455v-0.2h0.49v-0.156h-0.675v0.914h0.694v-0.155h-0.509v-0.247zM35.378 30.859h-0.36v-0.36h-0.183v0.914h0.183v-0.4h0.36v0.4h0.184v-0.914h-0.184v0.361zM37.103 31.010h0.457v-0.155h-0.457v-0.2h0.491v-0.156h-0.674v0.914h0.693v-0.155h-0.509v-0.247zM39.442 31.010c0.159-0.025 0.24-0.109 0.24-0.254 0.001-0.008 0.002-0.017 0.002-0.026 0-0.073-0.036-0.138-0.091-0.177l-0.001-0c-0.068-0.035-0.147-0.055-0.232-0.055-0.013 0-0.025 0-0.037 0.001l0.002-0h-0.387v0.914h0.184v-0.382h0.036c0.004-0 0.010-0 0.015-0 0.036 0 0.070 0.008 0.101 0.022l-0.002-0.001c0.027 0.017 0.049 0.039 0.065 0.067l0.199 0.29h0.219l-0.111-0.178c-0.050-0.089-0.118-0.163-0.2-0.218l-0.002-0.001zM39.257 30.883h-0.135v-0.229h0.145c0.012-0.001 0.025-0.002 0.039-0.002 0.053 0 0.104 0.009 0.151 0.024l-0.003-0.001c0.025 0.022 0.040 0.054 0.040 0.089 0 0.039-0.019 0.074-0.048 0.096l-0 0c-0.046 0.015-0.098 0.023-0.153 0.023-0.012 0-0.024-0-0.036-0.001l0.002 0zM41.206 31.010h0.455v-0.155h-0.455v-0.2h0.491v-0.156h-0.677v0.914h0.694v-0.155h-0.509v-0.247z"></path>
</symbol>
    <symbol id="icon-client2" viewBox="0 0 59 32">
<path d="M21.714 4l4.005 3.815-7.433-0.003v18.509h19.429v-7.077l4 3.811v-19.054h-20zM37.538 18.795l-11.354-10.817h11.354v10.817zM34.013 23.613h-12.653v-12.448h0.894v11.606h11.759v0.843zM23.883 29.75l-0.471-0.97h-0.389l0.683 1.283v0.748h0.353v-0.748l0.684-1.283h-0.388l-0.471 0.97zM25.622 28.779h0.083l0.767 2.031h-0.368l-0.165-0.475h-0.786l-0.164 0.475h-0.367l0.765-2.031h0.234zM25.249 30.058h0.595l-0.297-0.862-0.297 0.862zM27.704 29.721c-0.006-0.007-0.020-0.025-0.035-0.044l-0.009-0.013c-0.045-0.058-0.086-0.123-0.119-0.193l-0.003-0.006c-0.027-0.059-0.043-0.128-0.043-0.201 0-0 0-0 0-0v0c0-0.106 0.022-0.197 0.065-0.273s0.107-0.136 0.183-0.175l0.003-0.001c0.080-0.042 0.174-0.063 0.28-0.063 0.103 0 0.193 0.021 0.267 0.063 0.141 0.075 0.236 0.22 0.236 0.388 0 0.063-0.013 0.123-0.037 0.177l0.001-0.003c-0.025 0.056-0.058 0.104-0.097 0.145l0-0c-0.043 0.045-0.089 0.086-0.139 0.123l-0.003 0.002-0.141 0.103 0.402 0.474c0.055-0.106 0.088-0.232 0.088-0.365 0-0.005-0-0.010-0-0.015v0.001h0.29c0 0.099-0.010 0.192-0.029 0.28-0.027 0.128-0.079 0.241-0.15 0.338l0.002-0.002 0.297 0.351h-0.389l-0.118-0.139c-0.060 0.046-0.128 0.085-0.203 0.113l-0.005 0.002c-0.092 0.033-0.198 0.053-0.308 0.053-0.003 0-0.005 0-0.008-0h0c-0.135 0-0.251-0.025-0.35-0.074-0.095-0.046-0.173-0.116-0.227-0.201l-0.001-0.002c-0.050-0.082-0.080-0.181-0.080-0.288 0-0.003 0-0.007 0-0.010v0c0-0.083 0.017-0.155 0.051-0.217 0.035-0.063 0.082-0.122 0.141-0.177 0.055-0.050 0.118-0.099 0.189-0.149zM27.871 29.925l-0.042 0.030c-0.043 0.033-0.079 0.071-0.109 0.114l-0.001 0.002c-0.036 0.053-0.057 0.118-0.057 0.188 0 0.057 0.014 0.11 0.039 0.157l-0.001-0.002c0.027 0.049 0.065 0.088 0.112 0.115l0.001 0.001c0.050 0.027 0.109 0.042 0.172 0.042 0.004 0 0.007-0 0.011-0h-0.001c0.077 0 0.152-0.017 0.225-0.051 0.039-0.020 0.073-0.041 0.104-0.066l-0.001 0.001-0.451-0.531zM27.951 29.554l0.125-0.083c0.050-0.031 0.091-0.069 0.125-0.113l0.001-0.001c0.024-0.038 0.038-0.084 0.038-0.133 0-0.003-0-0.007-0-0.010v0c-0.004-0.109-0.093-0.196-0.202-0.196-0.004 0-0.008 0-0.012 0l0.001-0c-0.002-0-0.004-0-0.006-0-0.083 0-0.154 0.049-0.187 0.119l-0.001 0.001c-0.015 0.034-0.024 0.074-0.024 0.115 0 0.049 0.012 0.095 0.034 0.135l-0.001-0.002c0.021 0.044 0.050 0.090 0.088 0.138l0.023 0.030zM31.505 30.15h-0.349c-0.008 0.083-0.031 0.159-0.066 0.228l0.002-0.004c-0.032 0.060-0.080 0.108-0.139 0.137l-0.002 0.001c-0.064 0.030-0.14 0.048-0.22 0.048-0.008 0-0.015-0-0.022-0l0.001 0c-0.003 0-0.008 0-0.012 0-0.073 0-0.142-0.018-0.202-0.050l0.002 0.001c-0.060-0.034-0.109-0.081-0.144-0.137l-0.001-0.002c-0.038-0.061-0.066-0.133-0.083-0.209l-0.001-0.004c-0.017-0.081-0.027-0.173-0.027-0.268 0-0.004 0-0.007 0-0.011v0.001-0.171c0-0.109 0.010-0.204 0.029-0.288 0.021-0.085 0.051-0.155 0.091-0.213 0.038-0.056 0.088-0.1 0.146-0.13l0.002-0.001c0.058-0.028 0.126-0.045 0.198-0.045 0.004 0 0.008 0 0.012 0h-0.001c0.097 0 0.177 0.017 0.237 0.050s0.106 0.080 0.137 0.143c0.031 0.062 0.052 0.137 0.061 0.224h0.349c-0.012-0.135-0.053-0.257-0.117-0.365l0.002 0.004c-0.062-0.105-0.15-0.189-0.256-0.245l-0.003-0.002c-0.112-0.057-0.244-0.090-0.384-0.090-0.009 0-0.018 0-0.027 0l0.001-0c-0.127 0-0.242 0.023-0.345 0.067s-0.189 0.109-0.261 0.194c-0.073 0.085-0.13 0.186-0.166 0.296l-0.002 0.006c-0.038 0.118-0.057 0.25-0.057 0.396v0.169c0 0.146 0.019 0.278 0.056 0.396s0.093 0.219 0.165 0.303c0.071 0.083 0.158 0.147 0.258 0.193 0.101 0.045 0.214 0.067 0.339 0.067 0.163 0 0.303-0.030 0.417-0.089s0.203-0.141 0.266-0.245c0.063-0.104 0.101-0.223 0.111-0.355zM33.442 29.851v-0.111c0-0.153-0.020-0.291-0.061-0.411-0.038-0.12-0.097-0.224-0.172-0.313l0.001 0.001c-0.072-0.084-0.161-0.15-0.262-0.195l-0.005-0.002c-0.103-0.046-0.217-0.069-0.343-0.069-0.125 0-0.239 0.023-0.342 0.069-0.103 0.045-0.191 0.11-0.267 0.197-0.074 0.086-0.131 0.19-0.173 0.311-0.039 0.117-0.062 0.253-0.062 0.393 0 0.006 0 0.013 0 0.019v-0.001 0.111c0 0.154 0.021 0.291 0.062 0.413 0.040 0.12 0.1 0.223 0.176 0.312l-0.001-0.001c0.075 0.086 0.165 0.151 0.266 0.197 0.103 0.045 0.217 0.067 0.342 0.067s0.24-0.023 0.343-0.067c0.103-0.046 0.192-0.111 0.265-0.197 0.074-0.086 0.131-0.189 0.171-0.311s0.060-0.259 0.060-0.413zM33.093 29.737v0.114c0 0.114-0.011 0.214-0.034 0.302-0.019 0.084-0.052 0.158-0.096 0.224l0.002-0.002c-0.039 0.057-0.091 0.103-0.151 0.134l-0.002 0.001c-0.058 0.028-0.127 0.045-0.199 0.045-0.003 0-0.007-0-0.010-0h0c-0.003 0-0.006 0-0.009 0-0.072 0-0.14-0.016-0.201-0.046l0.003 0.001c-0.063-0.033-0.115-0.079-0.155-0.134l-0.001-0.001c-0.044-0.063-0.077-0.137-0.097-0.217l-0.001-0.005c-0.022-0.086-0.034-0.184-0.034-0.286 0-0.006 0-0.011 0-0.017v0.001-0.114c0-0.113 0.011-0.213 0.034-0.3s0.054-0.16 0.096-0.219c0.040-0.056 0.092-0.102 0.153-0.133l0.002-0.001c0.058-0.029 0.126-0.046 0.199-0.046 0.003 0 0.006 0 0.008 0h-0c0.077 0 0.146 0.015 0.208 0.046s0.113 0.074 0.154 0.134c0.043 0.058 0.075 0.131 0.097 0.219 0.023 0.087 0.034 0.187 0.034 0.3z"></path>
</symbol><symbol id="icon-client2" viewBox="0 0 59 32">
<path d="M21.714 4l4.005 3.815-7.433-0.003v18.509h19.429v-7.077l4 3.811v-19.054h-20zM37.538 18.795l-11.354-10.817h11.354v10.817zM34.013 23.613h-12.653v-12.448h0.894v11.606h11.759v0.843zM23.883 29.75l-0.471-0.97h-0.389l0.683 1.283v0.748h0.353v-0.748l0.684-1.283h-0.388l-0.471 0.97zM25.622 28.779h0.083l0.767 2.031h-0.368l-0.165-0.475h-0.786l-0.164 0.475h-0.367l0.765-2.031h0.234zM25.249 30.058h0.595l-0.297-0.862-0.297 0.862zM27.704 29.721c-0.006-0.007-0.020-0.025-0.035-0.044l-0.009-0.013c-0.045-0.058-0.086-0.123-0.119-0.193l-0.003-0.006c-0.027-0.059-0.043-0.128-0.043-0.201 0-0 0-0 0-0v0c0-0.106 0.022-0.197 0.065-0.273s0.107-0.136 0.183-0.175l0.003-0.001c0.080-0.042 0.174-0.063 0.28-0.063 0.103 0 0.193 0.021 0.267 0.063 0.141 0.075 0.236 0.22 0.236 0.388 0 0.063-0.013 0.123-0.037 0.177l0.001-0.003c-0.025 0.056-0.058 0.104-0.097 0.145l0-0c-0.043 0.045-0.089 0.086-0.139 0.123l-0.003 0.002-0.141 0.103 0.402 0.474c0.055-0.106 0.088-0.232 0.088-0.365 0-0.005-0-0.010-0-0.015v0.001h0.29c0 0.099-0.010 0.192-0.029 0.28-0.027 0.128-0.079 0.241-0.15 0.338l0.002-0.002 0.297 0.351h-0.389l-0.118-0.139c-0.060 0.046-0.128 0.085-0.203 0.113l-0.005 0.002c-0.092 0.033-0.198 0.053-0.308 0.053-0.003 0-0.005 0-0.008-0h0c-0.135 0-0.251-0.025-0.35-0.074-0.095-0.046-0.173-0.116-0.227-0.201l-0.001-0.002c-0.050-0.082-0.080-0.181-0.080-0.288 0-0.003 0-0.007 0-0.010v0c0-0.083 0.017-0.155 0.051-0.217 0.035-0.063 0.082-0.122 0.141-0.177 0.055-0.050 0.118-0.099 0.189-0.149zM27.871 29.925l-0.042 0.030c-0.043 0.033-0.079 0.071-0.109 0.114l-0.001 0.002c-0.036 0.053-0.057 0.118-0.057 0.188 0 0.057 0.014 0.11 0.039 0.157l-0.001-0.002c0.027 0.049 0.065 0.088 0.112 0.115l0.001 0.001c0.050 0.027 0.109 0.042 0.172 0.042 0.004 0 0.007-0 0.011-0h-0.001c0.077 0 0.152-0.017 0.225-0.051 0.039-0.020 0.073-0.041 0.104-0.066l-0.001 0.001-0.451-0.531zM27.951 29.554l0.125-0.083c0.050-0.031 0.091-0.069 0.125-0.113l0.001-0.001c0.024-0.038 0.038-0.084 0.038-0.133 0-0.003-0-0.007-0-0.010v0c-0.004-0.109-0.093-0.196-0.202-0.196-0.004 0-0.008 0-0.012 0l0.001-0c-0.002-0-0.004-0-0.006-0-0.083 0-0.154 0.049-0.187 0.119l-0.001 0.001c-0.015 0.034-0.024 0.074-0.024 0.115 0 0.049 0.012 0.095 0.034 0.135l-0.001-0.002c0.021 0.044 0.050 0.090 0.088 0.138l0.023 0.030zM31.505 30.15h-0.349c-0.008 0.083-0.031 0.159-0.066 0.228l0.002-0.004c-0.032 0.060-0.080 0.108-0.139 0.137l-0.002 0.001c-0.064 0.030-0.14 0.048-0.22 0.048-0.008 0-0.015-0-0.022-0l0.001 0c-0.003 0-0.008 0-0.012 0-0.073 0-0.142-0.018-0.202-0.050l0.002 0.001c-0.060-0.034-0.109-0.081-0.144-0.137l-0.001-0.002c-0.038-0.061-0.066-0.133-0.083-0.209l-0.001-0.004c-0.017-0.081-0.027-0.173-0.027-0.268 0-0.004 0-0.007 0-0.011v0.001-0.171c0-0.109 0.010-0.204 0.029-0.288 0.021-0.085 0.051-0.155 0.091-0.213 0.038-0.056 0.088-0.1 0.146-0.13l0.002-0.001c0.058-0.028 0.126-0.045 0.198-0.045 0.004 0 0.008 0 0.012 0h-0.001c0.097 0 0.177 0.017 0.237 0.050s0.106 0.080 0.137 0.143c0.031 0.062 0.052 0.137 0.061 0.224h0.349c-0.012-0.135-0.053-0.257-0.117-0.365l0.002 0.004c-0.062-0.105-0.15-0.189-0.256-0.245l-0.003-0.002c-0.112-0.057-0.244-0.090-0.384-0.090-0.009 0-0.018 0-0.027 0l0.001-0c-0.127 0-0.242 0.023-0.345 0.067s-0.189 0.109-0.261 0.194c-0.073 0.085-0.13 0.186-0.166 0.296l-0.002 0.006c-0.038 0.118-0.057 0.25-0.057 0.396v0.169c0 0.146 0.019 0.278 0.056 0.396s0.093 0.219 0.165 0.303c0.071 0.083 0.158 0.147 0.258 0.193 0.101 0.045 0.214 0.067 0.339 0.067 0.163 0 0.303-0.030 0.417-0.089s0.203-0.141 0.266-0.245c0.063-0.104 0.101-0.223 0.111-0.355zM33.442 29.851v-0.111c0-0.153-0.020-0.291-0.061-0.411-0.038-0.12-0.097-0.224-0.172-0.313l0.001 0.001c-0.072-0.084-0.161-0.15-0.262-0.195l-0.005-0.002c-0.103-0.046-0.217-0.069-0.343-0.069-0.125 0-0.239 0.023-0.342 0.069-0.103 0.045-0.191 0.11-0.267 0.197-0.074 0.086-0.131 0.19-0.173 0.311-0.039 0.117-0.062 0.253-0.062 0.393 0 0.006 0 0.013 0 0.019v-0.001 0.111c0 0.154 0.021 0.291 0.062 0.413 0.040 0.12 0.1 0.223 0.176 0.312l-0.001-0.001c0.075 0.086 0.165 0.151 0.266 0.197 0.103 0.045 0.217 0.067 0.342 0.067s0.24-0.023 0.343-0.067c0.103-0.046 0.192-0.111 0.265-0.197 0.074-0.086 0.131-0.189 0.171-0.311s0.060-0.259 0.060-0.413zM33.093 29.737v0.114c0 0.114-0.011 0.214-0.034 0.302-0.019 0.084-0.052 0.158-0.096 0.224l0.002-0.002c-0.039 0.057-0.091 0.103-0.151 0.134l-0.002 0.001c-0.058 0.028-0.127 0.045-0.199 0.045-0.003 0-0.007-0-0.010-0h0c-0.003 0-0.006 0-0.009 0-0.072 0-0.14-0.016-0.201-0.046l0.003 0.001c-0.063-0.033-0.115-0.079-0.155-0.134l-0.001-0.001c-0.044-0.063-0.077-0.137-0.097-0.217l-0.001-0.005c-0.022-0.086-0.034-0.184-0.034-0.286 0-0.006 0-0.011 0-0.017v0.001-0.114c0-0.113 0.011-0.213 0.034-0.3s0.054-0.16 0.096-0.219c0.040-0.056 0.092-0.102 0.153-0.133l0.002-0.001c0.058-0.029 0.126-0.046 0.199-0.046 0.003 0 0.006 0 0.008 0h-0c0.077 0 0.146 0.015 0.208 0.046s0.113 0.074 0.154 0.134c0.043 0.058 0.075 0.131 0.097 0.219 0.023 0.087 0.034 0.187 0.034 0.3z"></path>
</symbol>
    <symbol id="icon-client3" viewBox="0 0 59 32">
<path d="M21.034 28.127c0.009 0 0.018 0.002 0.026 0.006s0.016 0.008 0.023 0.013l-0-0 0.126 0.119c-0.099 0.096-0.216 0.172-0.347 0.223l-0.007 0.002c-0.16 0.057-0.331 0.085-0.503 0.081-0.008 0-0.017 0-0.026 0-0.16 0-0.314-0.028-0.457-0.079l0.009 0.003c-0.138-0.049-0.256-0.122-0.357-0.213l0.001 0.001c-0.097-0.090-0.175-0.2-0.228-0.323l-0.002-0.006c-0.051-0.121-0.081-0.262-0.081-0.41 0-0.004 0-0.009 0-0.013v0.001c-0-0.004-0-0.009-0-0.014 0-0.148 0.032-0.289 0.090-0.416l-0.003 0.006c0.055-0.122 0.138-0.234 0.245-0.329 0.107-0.092 0.233-0.165 0.37-0.212l0.008-0.002c0.141-0.048 0.303-0.076 0.471-0.076 0.006 0 0.011 0 0.017 0h-0.001c0.154-0.003 0.309 0.021 0.453 0.069 0.125 0.047 0.24 0.111 0.339 0.19l-0.106 0.127c-0.008 0.009-0.016 0.017-0.026 0.023l-0 0c-0.011 0.006-0.023 0.010-0.037 0.010-0.002 0-0.004-0-0.006-0l0 0c-0.017-0.001-0.033-0.006-0.046-0.014l0 0-0.057-0.034-0.078-0.043c-0.072-0.035-0.156-0.061-0.244-0.075l-0.005-0.001c-0.052-0.008-0.111-0.013-0.172-0.013-0.006 0-0.011 0-0.017 0h0.001c-0.004-0-0.008-0-0.012-0-0.121 0-0.237 0.021-0.345 0.059l0.007-0.002c-0.106 0.037-0.197 0.091-0.275 0.16l0.001-0.001c-0.079 0.074-0.139 0.16-0.178 0.254-0.041 0.095-0.065 0.207-0.065 0.323 0 0.004 0 0.008 0 0.012v-0.001c-0 0.004-0 0.008-0 0.013 0 0.118 0.024 0.23 0.067 0.332l-0.002-0.006c0.081 0.193 0.238 0.34 0.432 0.407l0.005 0.002c0.103 0.037 0.213 0.055 0.325 0.054 0.065 0.001 0.129-0.003 0.193-0.011 0.16-0.016 0.303-0.079 0.418-0.175l-0.001 0.001c0.016-0.013 0.037-0.021 0.060-0.022h0zM24.678 27.531c0.002 0.143-0.027 0.286-0.085 0.419-0.056 0.129-0.137 0.238-0.237 0.325l-0.001 0.001c-0.105 0.093-0.232 0.166-0.373 0.213-0.143 0.048-0.308 0.075-0.479 0.075s-0.336-0.028-0.49-0.079l0.011 0.003c-0.143-0.050-0.267-0.123-0.373-0.215l0.001 0.001c-0.101-0.090-0.182-0.199-0.237-0.323l-0.002-0.006c-0.054-0.124-0.085-0.268-0.085-0.42s0.031-0.296 0.088-0.427l-0.003 0.007c0.054-0.122 0.135-0.234 0.24-0.33 0.106-0.090 0.232-0.16 0.371-0.206 0.309-0.103 0.65-0.103 0.959 0 0.14 0.049 0.267 0.121 0.372 0.214 0.199 0.178 0.324 0.435 0.324 0.721 0 0.009-0 0.018-0 0.026l0-0.001zM24.346 27.531c0.003-0.114-0.017-0.229-0.059-0.337-0.077-0.196-0.234-0.345-0.431-0.409l-0.005-0.001c-0.104-0.035-0.224-0.055-0.349-0.055s-0.244 0.020-0.357 0.058l0.008-0.002c-0.104 0.036-0.193 0.090-0.267 0.16l0-0c-0.073 0.068-0.131 0.152-0.169 0.247l-0.002 0.005c-0.080 0.22-0.080 0.455 0 0.674 0.035 0.093 0.094 0.179 0.17 0.252 0.074 0.069 0.166 0.123 0.267 0.158 0.225 0.072 0.472 0.072 0.697 0 0.101-0.035 0.193-0.089 0.266-0.158 0.076-0.073 0.133-0.159 0.169-0.252 0.042-0.109 0.063-0.223 0.059-0.337zM27.163 27.885l0.033 0.075c0.013-0.027 0.024-0.051 0.037-0.075 0.012-0.026 0.026-0.050 0.041-0.074l0.806-1.251c0.016-0.022 0.030-0.035 0.046-0.040s0.035-0.007 0.054-0.007c0.004 0 0.009 0 0.013 0l-0.001-0h0.238v2.036h-0.282v-1.56c-0.001-0.011-0.001-0.023-0.001-0.035s0-0.025 0.001-0.037l-0 0.002-0.811 1.269c-0.011 0.020-0.027 0.036-0.047 0.046l-0.001 0c-0.020 0.011-0.043 0.017-0.068 0.017-0 0-0.001 0-0.001 0h-0.046c-0.001 0-0.001 0-0.002 0-0.025 0-0.048-0.006-0.069-0.018l0.001 0c-0.020-0.011-0.036-0.026-0.047-0.045l-0-0.001-0.834-1.278v1.634h-0.273v-2.032h0.238c0.003-0 0.006-0 0.010-0 0.020 0 0.039 0.003 0.057 0.007l-0.002-0c0.019 0.008 0.035 0.021 0.044 0.038l0 0 0.823 1.253c0.017 0.023 0.030 0.048 0.041 0.073zM30.197 27.784v0.762h-0.315v-2.033h0.703c0.133-0.002 0.266 0.013 0.393 0.045 0.102 0.025 0.197 0.067 0.278 0.126 0.067 0.052 0.121 0.12 0.156 0.197l0.001 0.003c0.037 0.083 0.055 0.171 0.054 0.26 0 0.003 0 0.006 0 0.009 0 0.185-0.089 0.35-0.227 0.453l-0.001 0.001c-0.079 0.060-0.173 0.106-0.274 0.134l-0.006 0.001c-0.122 0.033-0.251 0.049-0.379 0.047l-0.382-0.006zM30.197 27.566h0.382c0.083 0.001 0.166-0.010 0.245-0.031 0.067-0.019 0.126-0.049 0.178-0.088l-0.001 0.001c0.089-0.071 0.145-0.179 0.145-0.301 0-0.002 0-0.003-0-0.005v0c0-0.006 0.001-0.013 0.001-0.021 0-0.053-0.012-0.103-0.034-0.147l0.001 0.002c-0.027-0.055-0.064-0.102-0.11-0.138l-0.001-0.001c-0.106-0.070-0.235-0.111-0.374-0.111-0.017 0-0.035 0.001-0.052 0.002l0.002-0h-0.382v0.838zM34.437 28.549h-0.249c-0.001 0-0.003 0-0.004 0-0.024 0-0.046-0.007-0.065-0.019l0 0c-0.017-0.012-0.031-0.028-0.041-0.046l-0-0.001-0.214-0.492h-1.078l-0.222 0.491c-0.009 0.019-0.022 0.034-0.039 0.045l-0 0c-0.019 0.013-0.042 0.021-0.067 0.021-0.001 0-0.003-0-0.004-0h-0.249l0.946-2.036h0.328l0.959 2.036zM32.875 27.793h0.89l-0.375-0.829c-0.025-0.053-0.050-0.116-0.069-0.182l-0.002-0.009-0.036 0.106c-0.011 0.033-0.023 0.062-0.034 0.086l-0.373 0.829zM35.8 26.522c0.019 0.009 0.034 0.021 0.047 0.036l0 0 1.381 1.535v-1.581h0.282v2.036h-0.158c-0.002 0-0.004 0-0.006 0-0.021 0-0.041-0.004-0.060-0.012l0.001 0c-0.020-0.010-0.036-0.023-0.050-0.038l-0-0-1.378-1.534c0.001 0.011 0.001 0.023 0.001 0.035s-0 0.025-0.001 0.037l0-0.002v1.513h-0.282v-2.036h0.167c0.019-0.001 0.039 0.002 0.057 0.009zM39.834 27.739v0.809h-0.315v-0.809l-0.872-1.226h0.282c0.002-0 0.005-0 0.007-0 0.023 0 0.044 0.006 0.061 0.018l-0-0c0.017 0.013 0.031 0.029 0.042 0.046l0.546 0.791c0.037 0.052 0.070 0.112 0.094 0.175l0.002 0.005 0.041-0.087c0.015-0.032 0.034-0.063 0.054-0.093l0.538-0.797c0.012-0.017 0.025-0.031 0.041-0.043l0-0c0.017-0.013 0.039-0.020 0.062-0.020 0.002 0 0.004 0 0.006 0h0.285l-0.874 1.232zM27.007 23.095c0.137 0.015 0.276 0.027 0.417 0.038 2.129-0.813 3.929-2.145 5.177-3.828s1.887-3.642 1.838-5.634l-2.345-2.004c0.477 2.121 0.254 4.313-0.645 6.331-0.898 2.018-2.436 3.783-4.441 5.097z"></path>
<path d="M26.17 23.002l0.063 0.011c2.143-1.31 3.777-3.138 4.69-5.25s1.065-4.408 0.433-6.594l-3.341-2.854c1.351 2.346 1.895 4.972 1.569 7.571s-1.511 5.067-3.414 7.115zM37.5 16.024c-0.567 2.189-1.946 4.162-3.931 5.629-0.541 0.405-1.152 0.786-1.796 1.112l-0.071 0.033c1.616-0.406 3.102-1.123 4.342-2.097s2.202-2.178 2.811-3.52l-1.354-1.157z"></path>
<path d="M36.969 15.702l-1.929-1.648c-0.037 1.879-0.662 3.715-1.811 5.318s-2.779 2.914-4.721 3.796h0.010c0.433 0 0.865-0.022 1.295-0.066 1.815-0.633 3.419-1.64 4.667-2.931s2.104-2.827 2.489-4.469zM26.449 7.112l-2.301-1.969c-2.057 0.679-3.827 1.873-5.077 3.426s-1.922 3.392-1.929 5.277c0.008 2.082 0.828 4.103 2.331 5.742s3.603 2.803 5.967 3.308c2.111-2.198 3.347-4.913 3.528-7.751s-0.702-5.651-2.52-8.032zM42.286 15.399c-0.009-2.47-1.161-4.838-3.206-6.585-2.044-1.747-4.815-2.731-7.706-2.739-0.007-0-0.016-0-0.025-0-1.388 0-2.723 0.227-3.97 0.647l0.088-0.026 14.091 12.039c0.459-0.98 0.727-2.127 0.729-3.337v-0.001z"></path>
</symbol>
    <symbol id="icon-client4" viewBox="0 0 59 32">
<path d="M13.759 12.296h-0.002c-1.363 0-2.469 0.997-2.469 2.225v0.002c0 1.229 1.106 2.225 2.469 2.225h0.002c1.363 0 2.469-0.996 2.469-2.225v-0.002c0-1.229-1.105-2.225-2.469-2.225zM31.978 11.585c-0.003-1.707-0.757-3.343-2.096-4.551-1.339-1.207-3.153-1.887-5.047-1.891-1.894 0.003-3.709 0.683-5.049 1.89s-2.094 2.844-2.097 4.551v9.414s14.287-1.434 14.289-9.412v-0.002zM6.286 24.088c0.003 1.188 0.528 2.326 1.459 3.166s2.194 1.314 3.511 1.317c1.317-0.003 2.579-0.477 3.511-1.317s1.456-1.977 1.46-3.166v-6.549s-9.942 0.998-9.942 6.548zM11.257 25.262c-0.257 0-0.509-0.069-0.723-0.198-0.209-0.125-0.373-0.305-0.476-0.52l-0.003-0.007c-0.063-0.132-0.099-0.286-0.099-0.449 0-0.081 0.009-0.16 0.026-0.236l-0.001 0.007c0.056-0.241 0.182-0.446 0.355-0.6l0.001-0.001c0.181-0.161 0.408-0.275 0.659-0.32l0.008-0.001c0.253-0.046 0.514-0.022 0.752 0.067s0.441 0.239 0.584 0.432c0.143 0.193 0.219 0.42 0.219 0.652 0.001 0.154-0.033 0.308-0.098 0.451s-0.161 0.273-0.282 0.382c-0.119 0.107-0.26 0.194-0.414 0.252l-0.009 0.003c-0.148 0.057-0.319 0.090-0.498 0.090-0.001 0-0.001 0-0.002 0h0v-0.005zM20.348 23.151v2.438h-0.502v-2.438h0.502zM21.319 24.193v0.392h-1.109v-0.392h1.109zM21.436 23.151v0.393h-1.225v-0.393h1.225zM23.73 24.313v0.115c0 0.186-0.025 0.352-0.075 0.499-0.048 0.146-0.121 0.271-0.214 0.379l0.001-0.001c-0.091 0.103-0.201 0.181-0.328 0.236-0.12 0.052-0.259 0.082-0.405 0.082-0.005 0-0.011-0-0.016-0h0.001c-0.153 0-0.293-0.027-0.42-0.082-0.129-0.057-0.238-0.136-0.327-0.235l-0.001-0.001c-0.093-0.106-0.167-0.232-0.214-0.369l-0.002-0.008c-0.048-0.142-0.076-0.306-0.076-0.477 0-0.008 0-0.016 0-0.023v0.001-0.115c0-0.186 0.025-0.353 0.075-0.499 0.048-0.145 0.121-0.271 0.214-0.378l-0.001 0.001c0.093-0.104 0.202-0.183 0.328-0.238 0.127-0.055 0.267-0.082 0.421-0.082 0.154 0 0.294 0.027 0.42 0.082 0.127 0.055 0.237 0.134 0.328 0.238 0.093 0.104 0.164 0.229 0.214 0.377 0.051 0.146 0.077 0.312 0.077 0.498zM23.222 24.429v-0.119c0-0.129-0.011-0.243-0.035-0.341-0.021-0.094-0.057-0.177-0.106-0.251l0.002 0.003c-0.042-0.064-0.099-0.115-0.165-0.15l-0.002-0.001c-0.063-0.032-0.137-0.052-0.216-0.052-0.003 0-0.007 0-0.010 0h0c-0.085 0-0.16 0.017-0.226 0.051-0.068 0.037-0.124 0.088-0.165 0.149l-0.001 0.002c-0.046 0.071-0.081 0.154-0.101 0.243l-0.001 0.005c-0.022 0.096-0.035 0.206-0.035 0.32 0 0.008 0 0.015 0 0.022v-0.001 0.119c0 0.129 0.011 0.242 0.035 0.342 0.023 0.098 0.058 0.181 0.104 0.25 0.046 0.067 0.102 0.118 0.167 0.152s0.141 0.052 0.226 0.052c0.085 0 0.16-0.017 0.226-0.051 0.068-0.037 0.124-0.088 0.165-0.151l0.001-0.002c0.045-0.069 0.079-0.151 0.102-0.25 0.022-0.097 0.035-0.207 0.035-0.321 0-0.007-0-0.014-0-0.022v0.001zM25.36 24.951c0-0.002 0-0.003 0-0.005 0-0.040-0.007-0.079-0.021-0.114l0.001 0.002c-0.015-0.039-0.039-0.072-0.070-0.097l-0-0c-0.042-0.034-0.090-0.064-0.142-0.087l-0.004-0.002c-0.065-0.030-0.146-0.061-0.228-0.086l-0.015-0.004c-0.128-0.041-0.232-0.082-0.334-0.128l0.019 0.008c-0.1-0.045-0.186-0.097-0.264-0.158l0.003 0.002c-0.072-0.057-0.131-0.127-0.175-0.206l-0.002-0.004c-0.040-0.077-0.064-0.168-0.064-0.264 0-0.004 0-0.008 0-0.012v0.001c-0-0.002-0-0.005-0-0.008 0-0.098 0.025-0.191 0.068-0.271l-0.002 0.003c0.045-0.084 0.107-0.155 0.187-0.214 0.080-0.061 0.175-0.107 0.285-0.139 0.111-0.032 0.231-0.049 0.363-0.049 0.179 0 0.337 0.033 0.47 0.097s0.238 0.154 0.311 0.266c0.074 0.113 0.112 0.242 0.112 0.387h-0.499c0-0.003 0-0.006 0-0.009 0-0.066-0.017-0.127-0.046-0.181l0.001 0.002c-0.031-0.056-0.076-0.1-0.132-0.128l-0.002-0.001c-0.060-0.030-0.132-0.047-0.207-0.047-0.006 0-0.012 0-0.019 0l0.001-0c-0.005-0-0.011-0-0.017-0-0.072 0-0.141 0.015-0.204 0.042l0.003-0.001c-0.054 0.022-0.099 0.059-0.131 0.105l-0.001 0.001c-0.027 0.040-0.043 0.090-0.043 0.143 0 0.002 0 0.003 0 0.005v-0c0 0.041 0.010 0.079 0.030 0.112 0.025 0.037 0.057 0.069 0.093 0.093l0.001 0.001c0.041 0.029 0.091 0.057 0.152 0.082s0.13 0.051 0.209 0.075c0.133 0.040 0.25 0.085 0.35 0.135s0.186 0.106 0.254 0.169c0.069 0.063 0.119 0.133 0.154 0.213s0.051 0.169 0.051 0.27c0 0.007 0 0.015 0 0.023 0 0.194-0.095 0.366-0.24 0.473l-0.002 0.001c-0.078 0.058-0.171 0.102-0.279 0.132s-0.229 0.046-0.363 0.046c-0.12 0-0.239-0.016-0.357-0.047-0.122-0.033-0.228-0.083-0.324-0.148l0.004 0.002c-0.094-0.064-0.17-0.147-0.226-0.244l-0.002-0.004c-0.057-0.101-0.085-0.219-0.085-0.357h0.504c0 0.076 0.011 0.14 0.035 0.193 0.023 0.051 0.056 0.094 0.098 0.126l0.001 0.001c0.044 0.032 0.095 0.056 0.151 0.070l0.003 0.001c0.060 0.015 0.126 0.022 0.197 0.022 0.006 0 0.012 0 0.019 0 0.070 0 0.138-0.014 0.199-0.038l-0.004 0.001c0.099-0.040 0.167-0.135 0.167-0.246 0-0.001 0-0.003-0-0.004v0zM27.294 23.151v2.438h-0.501v-2.438h0.501zM28.044 23.151v0.393h-1.989v-0.393h1.989zM29.966 25.197v0.392h-1.297v-0.392h1.297zM28.833 23.151v2.438h-0.503v-2.438h0.503zM29.797 24.144v0.382h-1.129v-0.382h1.129zM29.964 23.151v0.393h-1.296v-0.393h1.296zM30.259 23.151h0.909c0.187 0 0.347 0.028 0.481 0.083 0.135 0.056 0.239 0.139 0.311 0.248s0.109 0.244 0.109 0.403c0 0.131-0.022 0.243-0.067 0.337-0.044 0.093-0.107 0.171-0.184 0.232l-0.001 0.001c-0.080 0.061-0.173 0.111-0.273 0.145l-0.007 0.002-0.159 0.084h-0.79l-0.003-0.392h0.587c0.005 0 0.011 0 0.017 0 0.074 0 0.144-0.017 0.206-0.048l-0.003 0.001c0.056-0.030 0.101-0.075 0.13-0.129l0.001-0.002c0.029-0.054 0.045-0.118 0.045-0.185 0-0.003-0-0.006-0-0.010v0c0-0.003 0-0.007 0-0.011 0-0.070-0.016-0.135-0.045-0.194l0.001 0.003c-0.029-0.057-0.075-0.102-0.131-0.13l-0.002-0.001c-0.061-0.029-0.132-0.046-0.207-0.046-0.006 0-0.011 0-0.017 0l0.001-0h-0.407v2.045h-0.502v-2.438zM31.621 25.589l-0.555-1.087 0.53-0.003 0.563 1.067v0.023h-0.537zM34.258 24.721h-0.621v-0.392h0.621c0.006 0 0.013 0 0.020 0 0.078 0 0.151-0.017 0.217-0.049l-0.003 0.001c0.057-0.030 0.103-0.076 0.131-0.133l0.001-0.002c0.026-0.058 0.041-0.126 0.041-0.197s-0.015-0.139-0.043-0.201l0.001 0.003c-0.029-0.063-0.074-0.115-0.131-0.15l-0.001-0.001c-0.062-0.036-0.137-0.058-0.216-0.058-0.006 0-0.013 0-0.019 0l0.001-0h-0.447v2.045h-0.502v-2.438h0.949c0.191 0 0.354 0.034 0.491 0.104 0.137 0.068 0.242 0.162 0.314 0.283s0.109 0.258 0.109 0.413c0 0.158-0.036 0.294-0.109 0.409s-0.177 0.204-0.314 0.266c-0.137 0.063-0.3 0.094-0.491 0.094zM37.154 25.197v0.392h-1.297v-0.392h1.297zM36.021 23.151v2.438h-0.503v-2.438h0.503zM36.985 24.144v0.382h-1.128v-0.382h1.129zM37.153 23.151v0.393h-1.295v-0.393h1.295zM38.571 23.151v2.438h-0.501v-2.438h0.501zM39.321 23.151v0.393h-1.989v-0.393h1.989zM41.242 25.197v0.392h-1.297v-0.392h1.297zM40.109 23.151v2.438h-0.502v-2.438h0.502zM41.073 24.144v0.382h-1.128v-0.382h1.128zM41.241 23.151v0.393h-1.295v-0.393h1.295zM41.535 23.151h0.909c0.187 0 0.347 0.028 0.481 0.083s0.239 0.139 0.311 0.248c0.072 0.109 0.109 0.244 0.109 0.403 0 0.131-0.023 0.243-0.067 0.337s-0.107 0.171-0.184 0.232l-0.001 0.001c-0.080 0.061-0.173 0.111-0.273 0.145l-0.007 0.002-0.159 0.084h-0.79l-0.003-0.392h0.588c0.005 0 0.010 0 0.016 0 0.074 0 0.144-0.017 0.206-0.048l-0.003 0.001c0.056-0.030 0.101-0.075 0.13-0.129l0.001-0.002c0.029-0.054 0.046-0.118 0.046-0.186 0-0.003-0-0.006-0-0.008v0c0-0.003 0-0.007 0-0.010 0-0.070-0.016-0.136-0.045-0.195l0.001 0.003c-0.029-0.057-0.075-0.102-0.13-0.13l-0.002-0.001c-0.061-0.029-0.132-0.046-0.207-0.046-0.006 0-0.011 0-0.017 0l0.001-0h-0.407v2.045h-0.502v-2.438zM42.898 25.589l-0.556-1.087 0.531-0.003 0.562 1.067v0.023h-0.537zM45.001 24.951c0-0.001 0-0.002 0-0.004 0-0.041-0.008-0.080-0.021-0.116l0.001 0.002c-0.015-0.039-0.039-0.072-0.070-0.097l-0-0c-0.042-0.034-0.090-0.064-0.142-0.087l-0.004-0.002c-0.065-0.030-0.145-0.061-0.228-0.086l-0.015-0.004c-0.129-0.041-0.233-0.082-0.334-0.128l0.019 0.008c-0.1-0.045-0.185-0.097-0.264-0.158l0.003 0.002c-0.072-0.057-0.131-0.127-0.175-0.206l-0.002-0.004c-0.040-0.077-0.064-0.168-0.064-0.264 0-0.004 0-0.008 0-0.012v0.001c-0-0.002-0-0.005-0-0.008 0-0.098 0.025-0.191 0.068-0.271l-0.002 0.003c0.045-0.084 0.107-0.155 0.187-0.214 0.080-0.061 0.175-0.107 0.285-0.139 0.111-0.032 0.231-0.049 0.363-0.049 0.179 0 0.337 0.033 0.47 0.097s0.238 0.154 0.311 0.266c0.075 0.113 0.112 0.242 0.112 0.387h-0.499c0-0.003 0-0.006 0-0.009 0-0.066-0.017-0.127-0.046-0.181l0.001 0.002c-0.031-0.056-0.076-0.1-0.132-0.128l-0.002-0.001c-0.060-0.030-0.132-0.047-0.207-0.047-0.006 0-0.012 0-0.019 0l0.001-0c-0.005-0-0.011-0-0.017-0-0.072 0-0.141 0.015-0.204 0.042l0.003-0.001c-0.054 0.022-0.099 0.059-0.13 0.105l-0.001 0.001c-0.027 0.040-0.043 0.090-0.043 0.144 0 0.001 0 0.003 0 0.004v-0c0 0.041 0.010 0.079 0.030 0.112 0.025 0.037 0.057 0.069 0.093 0.093l0.001 0.001c0.041 0.029 0.091 0.057 0.152 0.082s0.13 0.051 0.209 0.075c0.133 0.040 0.25 0.085 0.35 0.135s0.186 0.106 0.254 0.169c0.069 0.063 0.119 0.133 0.154 0.213s0.051 0.169 0.051 0.27c0 0.007 0 0.015 0 0.023 0 0.194-0.094 0.366-0.24 0.473l-0.002 0.001c-0.078 0.058-0.171 0.102-0.279 0.132s-0.229 0.046-0.363 0.046c-0.121 0-0.24-0.016-0.357-0.047-0.122-0.033-0.228-0.083-0.324-0.148l0.004 0.002c-0.094-0.064-0.171-0.147-0.226-0.244l-0.002-0.004c-0.057-0.101-0.085-0.219-0.085-0.357h0.504c0 0.076 0.011 0.14 0.035 0.193 0.023 0.051 0.056 0.094 0.098 0.126l0.001 0.001c0.044 0.032 0.095 0.056 0.151 0.070l0.003 0.001c0.060 0.015 0.126 0.022 0.198 0.022 0.005 0 0.012 0 0.018 0 0.070 0 0.138-0.014 0.199-0.038l-0.004 0.001c0.099-0.040 0.167-0.135 0.167-0.246 0-0.001 0-0.003-0-0.004v0z"></path>
</symbol>
   <symbol id="icon-client5" viewBox="0 0 59 32">
<path d="M15.31 25.356c0.14 0.157 0.215 0.352 0.211 0.553 0.007 0.131-0.019 0.262-0.075 0.383s-0.143 0.229-0.252 0.315c-0.239 0.162-0.534 0.258-0.851 0.258-0.035 0-0.070-0.001-0.105-0.004l0.005 0h-1.671v-3.504h1.637c0.029-0.002 0.063-0.003 0.097-0.003 0.301 0 0.581 0.088 0.817 0.239l-0.006-0.004c0.105 0.080 0.189 0.181 0.245 0.294s0.080 0.238 0.073 0.362c0.010 0.193-0.058 0.383-0.19 0.535-0.129 0.138-0.3 0.236-0.492 0.273l-0.006 0.001c0.222 0.037 0.422 0.143 0.565 0.299zM13.349 24.827h0.7c0.159 0.011 0.317-0.030 0.445-0.116 0.051-0.041 0.092-0.093 0.119-0.153l0.001-0.003c0.020-0.045 0.032-0.097 0.032-0.152 0-0.012-0.001-0.025-0.002-0.037l0 0.002c0.001-0.009 0.001-0.019 0.001-0.029 0-0.057-0.012-0.11-0.034-0.159l0.001 0.003c-0.028-0.062-0.067-0.114-0.116-0.156l-0.001-0c-0.113-0.075-0.252-0.12-0.401-0.12-0.020 0-0.040 0.001-0.060 0.002l0.003-0h-0.689v0.919zM14.562 26.171c0.055-0.042 0.098-0.096 0.128-0.158l0.001-0.003c0.024-0.049 0.037-0.107 0.037-0.168 0-0.010-0-0.019-0.001-0.028l0 0.001c0.001-0.007 0.001-0.016 0.001-0.025 0-0.063-0.014-0.122-0.040-0.175l0.001 0.002c-0.032-0.065-0.076-0.119-0.13-0.161l-0.001-0.001c-0.121-0.080-0.269-0.128-0.429-0.128-0.016 0-0.033 0-0.049 0.002l0.002-0h-0.734v0.964h0.743c0.167 0.009 0.333-0.034 0.47-0.122zM18.657 26.863l-0.911-1.37h-0.343v1.369h-0.783v-3.504h1.483c0.032-0.002 0.069-0.004 0.107-0.004 0.348 0 0.67 0.113 0.93 0.304l-0.004-0.003c0.207 0.19 0.333 0.441 0.353 0.707s-0.066 0.529-0.242 0.743c-0.183 0.189-0.433 0.315-0.707 0.357l0.97 1.4h-0.851zM17.403 25.015h0.641c0.445 0 0.667-0.177 0.667-0.531 0.001-0.009 0.001-0.019 0.001-0.029 0-0.066-0.014-0.129-0.038-0.187l0.001 0.003c-0.030-0.071-0.073-0.132-0.127-0.181l-0-0c-0.122-0.090-0.275-0.144-0.441-0.144-0.022 0-0.044 0.001-0.065 0.003l0.003-0h-0.649l0.008 1.066zM22.939 26.157h-1.562l-0.276 0.705h-0.821l1.434-3.465h0.888l1.428 3.465h-0.822l-0.27-0.705zM22.73 25.627l-0.571-1.479-0.57 1.479h1.141zM28.299 26.863h-0.777l-1.744-2.383v2.383h-0.776v-3.505h0.776l1.743 2.397v-2.397h0.778v3.504zM32.737 26.023c-0.169 0.27-0.409 0.482-0.693 0.614l-0.010 0.004c-0.338 0.154-0.714 0.23-1.093 0.221h-1.385v-3.504h1.385c0.019-0.001 0.042-0.001 0.064-0.001 0.372 0 0.726 0.080 1.045 0.223l-0.016-0.006c0.298 0.135 0.543 0.349 0.703 0.611 0.16 0.285 0.243 0.6 0.243 0.919-0.001 0.338-0.091 0.655-0.248 0.928l0.005-0.009zM31.847 25.94c0.211-0.216 0.341-0.511 0.344-0.836v-0c-0.003-0.326-0.133-0.62-0.344-0.836l0 0c-0.242-0.188-0.55-0.301-0.884-0.301-0.031 0-0.063 0.001-0.094 0.003l0.004-0h-0.54v2.269h0.54c0.027 0.002 0.058 0.003 0.090 0.003 0.334 0 0.642-0.113 0.887-0.303l-0.003 0.002zM23.426 3.867s10.038 3.411 9.825 8.349v8.351s-10.031-3.414-9.822-8.351l-0.003-8.349zM42.194 18.611c1.895-1.175 4.089-1.903 6.378-2.116v-2.614c-2.638 0.915-4.875 2.574-6.378 4.73z"></path>
<path d="M41.055 19.399c1.551-2.813 4.242-4.983 7.517-6.065v-7.533s-14.296 4.86-13.994 11.891v11.889s0.637-0.217 1.639-0.625c0-0.38 0-0.763 0.046-1.149 0.296-3.264 2.019-6.289 4.792-8.409z"></path>
<path d="M39.695 23.815c0.084-0.899 0.261-1.726 0.523-2.513l-0.023 0.079c-1.727 1.831-2.772 4.103-2.99 6.497-0.021 0.226-0.032 0.451-0.038 0.685 1.198-0.515 2.101-0.951 2.987-1.418l-0.237 0.114c-0.171-0.73-0.269-1.569-0.269-2.43 0-0.357 0.017-0.709 0.050-1.057l-0.003 0.044zM40.263 23.858c-0.028 0.289-0.044 0.624-0.044 0.963 0 0.763 0.080 1.506 0.233 2.224l-0.012-0.070c3.906-2.104 8.294-5.354 8.125-9.283v-0.343c-2.79 0.282-5.401 1.38-7.431 3.126-0.448 0.989-0.757 2.136-0.868 3.341l-0.003 0.042z"></path>
</symbol>
    <symbol id="icon-client6" viewBox="0 0 59 32">
<path d="M30.589 15.682c-0.219-0.282-0.35-0.64-0.35-1.029 0-0.038 0.001-0.076 0.004-0.114l-0 0.005v-1.65c0-0.506 0.115-0.89 0.345-1.153s0.624-0.394 1.183-0.393c0.526 0 0.898 0.112 1.119 0.336 0.24 0.286 0.357 0.635 0.33 0.987v0.389h-0.939v-0.393c0.003-0.129-0.006-0.257-0.027-0.385-0.016-0.093-0.064-0.172-0.133-0.228l-0.001-0.001c-0.084-0.056-0.188-0.090-0.3-0.090-0.014 0-0.029 0.001-0.043 0.002l0.002-0c-0.012-0.001-0.027-0.001-0.041-0.001-0.118 0-0.228 0.036-0.319 0.097l0.002-0.001c-0.078 0.062-0.133 0.149-0.155 0.249l-0.001 0.003c-0.024 0.113-0.037 0.243-0.037 0.376 0 0.011 0 0.023 0 0.034l-0-0.002v2.003c-0.002 0.023-0.003 0.049-0.003 0.075 0 0.178 0.046 0.346 0.126 0.492l-0.003-0.005c0.049 0.060 0.112 0.107 0.184 0.136l0.003 0.001c0.076 0.029 0.16 0.040 0.243 0.031 0.12 0.009 0.24-0.024 0.333-0.091 0.072-0.060 0.123-0.145 0.14-0.241l0-0.002c0.022-0.133 0.032-0.267 0.029-0.401v-0.406h0.94v0.371c0.002 0.029 0.003 0.062 0.003 0.096 0 0.357-0.124 0.685-0.331 0.944l0.002-0.003c-0.215 0.245-0.583 0.367-1.124 0.367s-0.949-0.131-1.181-0.403zM34.501 15.699c-0.237-0.257-0.356-0.631-0.356-1.127v-1.736c0-0.49 0.119-0.861 0.356-1.113s0.634-0.377 1.191-0.376c0.553 0 0.947 0.126 1.185 0.376 0.238 0.252 0.358 0.623 0.358 1.113v1.736c0 0.49-0.121 0.866-0.362 1.125s-0.634 0.387-1.181 0.387-0.951-0.131-1.191-0.386zM36.129 15.282c0.085-0.161 0.124-0.337 0.113-0.514v-2.126c0.001-0.017 0.002-0.036 0.002-0.056 0-0.164-0.042-0.318-0.115-0.452l0.002 0.005c-0.050-0.062-0.114-0.109-0.188-0.138l-0.003-0.001c-0.055-0.021-0.118-0.034-0.184-0.034-0.023 0-0.045 0.001-0.067 0.004l0.003-0c-0.019-0.002-0.041-0.004-0.063-0.004-0.067 0-0.131 0.012-0.19 0.035l0.004-0.001c-0.078 0.029-0.143 0.076-0.193 0.137l-0.001 0.001c-0.086 0.157-0.125 0.33-0.113 0.503v2.136c-0.012 0.177 0.027 0.353 0.113 0.514 0.055 0.054 0.122 0.097 0.198 0.127 0.072 0.029 0.155 0.046 0.241 0.046s0.17-0.017 0.246-0.047l-0.004 0.002c0.076-0.030 0.143-0.074 0.198-0.127v-0.010zM38.365 11.398h1.011l0.761 3.203 0.778-3.203h0.985l0.099 4.623h-0.728l-0.078-3.213-0.751 3.213h-0.583l-0.778-3.225-0.072 3.225h-0.735l0.091-4.623zM43.133 11.398h1.576c0.907 0 1.362 0.438 1.362 1.313 0 0.838-0.478 1.257-1.434 1.256h-0.537v2.055h-0.973l0.006-4.623zM44.479 13.374c0.096 0.010 0.194 0.003 0.286-0.023 0.093-0.025 0.177-0.067 0.249-0.123 0.090-0.122 0.144-0.276 0.144-0.442 0-0.028-0.002-0.056-0.005-0.083l0 0.003c0.001-0.016 0.001-0.035 0.001-0.053 0-0.13-0.017-0.257-0.050-0.377l0.002 0.010c-0.016-0.049-0.040-0.092-0.072-0.127l0 0c-0.034-0.038-0.075-0.069-0.121-0.092l-0.002-0.001c-0.113-0.047-0.244-0.075-0.382-0.075-0.019 0-0.037 0.001-0.055 0.002l0.003-0h-0.377v1.382h0.377zM47.474 11.398h1.045l1.072 4.623h-0.907l-0.211-1.066h-0.932l-0.218 1.066h-0.92l1.072-4.623zM48.367 14.419l-0.364-1.941-0.364 1.941h0.727zM50.456 11.398h0.681l1.303 2.637v-2.637h0.808v4.623h-0.648l-1.311-2.753v2.753h-0.834l0.002-4.623zM55.139 14.258l-1.083-2.854h0.913l0.661 1.833 0.621-1.833h0.893l-1.070 2.854v1.762h-0.934v-1.762zM32.090 18.042v0.242h-0.794v1.878h-0.332v-1.878h-0.798v-0.242h1.924zM34.578 20.162h-0.257c-0.002 0-0.004 0-0.007 0-0.024 0-0.047-0.008-0.065-0.020l0 0c-0.019-0.012-0.033-0.028-0.043-0.048l-0-0.001-0.23-0.503h-1.101l-0.23 0.503c-0.007 0.022-0.019 0.042-0.034 0.057v0c-0.019 0.013-0.042 0.020-0.066 0.020-0.002 0-0.004-0-0.007-0h-0.257l0.973-2.12h0.338l0.985 2.111zM32.967 19.375h0.918l-0.389-0.863c-0.025-0.054-0.050-0.121-0.070-0.189l-0.003-0.011c-0.014 0.040-0.025 0.079-0.037 0.113l-0.035 0.089-0.385 0.861zM36.255 19.954c0.061 0.003 0.122 0.003 0.183 0 0.053-0.005 0.105-0.013 0.156-0.025 0.056-0.012 0.103-0.025 0.148-0.041l-0.008 0.003c0.043-0.015 0.086-0.034 0.13-0.053v-0.477h-0.389c-0.001 0-0.003 0-0.005 0-0.008 0-0.017-0.001-0.024-0.004l0.001 0c-0.009-0.003-0.017-0.008-0.024-0.013l0 0c-0.006-0.005-0.011-0.010-0.015-0.017l-0-0c-0.003-0.006-0.005-0.012-0.005-0.019 0-0.001 0-0.002 0-0.002v0-0.163h0.755v0.813c-0.118 0.074-0.255 0.133-0.4 0.171l-0.010 0.002c-0.080 0.020-0.161 0.034-0.243 0.043-0.085 0.009-0.184 0.014-0.284 0.014-0 0-0 0-0 0v0c-0.003 0-0.007 0-0.011 0-0.172 0-0.336-0.029-0.489-0.083l0.010 0.003c-0.15-0.052-0.279-0.127-0.391-0.223l0.002 0.001c-0.104-0.092-0.189-0.204-0.249-0.33l-0.003-0.006c-0.056-0.125-0.089-0.272-0.089-0.426 0-0.005 0-0.010 0-0.015v0.001c-0-0.004-0-0.009-0-0.013 0-0.155 0.032-0.303 0.090-0.437l-0.003 0.007c0.056-0.126 0.142-0.24 0.251-0.336 0.111-0.095 0.243-0.17 0.389-0.22 0.167-0.054 0.344-0.081 0.522-0.079 0.091 0 0.181 0.006 0.27 0.018 0.079 0.011 0.157 0.029 0.231 0.054 0.069 0.022 0.134 0.050 0.194 0.084s0.117 0.070 0.17 0.111l-0.093 0.131c-0.008 0.012-0.019 0.022-0.032 0.028l-0 0c-0.013 0.007-0.028 0.011-0.044 0.011h-0c-0.022-0.001-0.043-0.007-0.061-0.017l0.001 0c-0.039-0.019-0.070-0.035-0.1-0.053l0.005 0.003c-0.037-0.020-0.080-0.040-0.125-0.055l-0.006-0.002c-0.050-0.018-0.11-0.034-0.171-0.046l-0.008-0.001c-0.070-0.012-0.151-0.018-0.234-0.018-0.005 0-0.009 0-0.014 0h0.001c-0.003-0-0.008-0-0.012-0-0.13 0-0.255 0.022-0.372 0.061l0.008-0.002c-0.111 0.038-0.206 0.096-0.286 0.169l0.001-0.001c-0.081 0.076-0.143 0.166-0.182 0.263-0.041 0.105-0.065 0.227-0.065 0.354s0.024 0.249 0.068 0.36l-0.002-0.007c0.043 0.099 0.109 0.19 0.195 0.267 0.080 0.073 0.177 0.13 0.284 0.168 0.124 0.037 0.255 0.051 0.385 0.042zM39.357 19.921h1.063v0.242h-1.387v-2.12h0.333l-0.008 1.878zM41.524 20.162h-0.333v-2.12h0.333v2.12zM42.761 18.052c0.020 0.010 0.037 0.023 0.051 0.039l0 0 1.422 1.598c-0.001-0.011-0.001-0.024-0.001-0.038s0.001-0.026 0.002-0.039l-0 0.002v-1.58h0.29v2.129h-0.167c-0.003 0-0.007 0-0.011 0-0.022 0-0.043-0.005-0.062-0.013l0.001 0c-0.020-0.011-0.038-0.024-0.052-0.040l-0-0-1.42-1.597v1.649h-0.278v-2.121h0.173c0.019 0 0.038 0.003 0.055 0.010zM46.974 18.042v0.233h-1.179v0.7h0.955v0.225h-0.955v0.723h1.179v0.233h-1.522v-2.115h1.522zM12.111 4.948l14.773 3.619v12.683l-14.773-3.617v-12.686zM11.164 3.867v14.382l16.666 4.085v-14.38l-16.666-4.086z"></path>
<path d="M20.096 29.010l-16.667-4.088v-14.381l16.667 4.086v14.383z"></path>
<path d="M11.44 4.785l14.58 3.574-6.2 5.352-14.582-3.576 6.202-5.35zM11.164 3.867l-7.735 6.674 16.667 4.086 7.734-6.674-16.666-4.086zM21.034 28.2l6.795-5.865-6.796-1.667v7.533z"></path>
</symbol>
    <symbol id="icon-clock" viewBox="0 0 32 32">
      <path fill="#2e2f42" d="M31.297 15.301C31.295 6.849 24.442-.002 15.989 0S.686 6.855.688 15.308C.69 22.096 5.11 27.851 11.229 29.853l.108.031a.67.67 0 0 0 .529-.064.642.642 0 0 0 .284-.357l3.865-12.25a1.913 1.913 0 1 0-.851-3.63l.011-.005-5.106-5.107a.637.637 0 1 0-.902.902l5.104 5.109a1.873 1.873 0 0 0 .532 2.306l.004.003-3.683 11.673C3.846 25.783.119 17.71 2.801 10.432 5.482 3.155 13.556-.573 20.833 2.109s11.004 10.755 8.323 18.032c-1.345 3.581-4.004 6.406-7.374 7.938l-.088.036-.398-1.875a.638.638 0 0 0-1.049-.343l.001-.001-3.837 3.425a.639.639 0 0 0 .227 1.084l.005.001 4.899 1.564a.637.637 0 0 0 .818-.743l.001.004-.391-1.839c5.528-2.374 9.329-7.772 9.329-14.057v-.034.002zm-15.305-.637a.638.638 0 0 1 0 1.276.638.638 0 0 1 0-1.276zm2.101 14.863 2.184-1.948.603 2.84-2.787-.892z" style="fill:var(--color1, #2e2f42)"/>
      <path fill="#4d5ae5" d="M15.354 3.185V4.46a.638.638 0 1 0 1.275 0V3.185a.639.639 0 0 0-1.274-.002v.001zM3.876 14.664a.637.637 0 1 0 .001 1.274h1.275a.638.638 0 1 0 0-1.274H3.877zm24.232 1.275a.637.637 0 1 0 0-1.274h-1.275a.639.639 0 0 0-.002 1.274H28.107z" style="fill:var(--color2, #4d5ae5)"/>
    </symbol>
    <symbol id="icon-diagram" viewBox="0 0 32 32">
      <path fill="#4d5ae5" d="M14.925 14.965h1.066v4.797h-1.066v-4.797zm4.265 2.132h1.066v2.665H19.19v-2.665zm-8.529 1.599h1.066v1.066h-1.066v-1.066zm-3.198-.533h1.066v1.599H7.463v-1.599z" style="fill:var(--color2, #4d5ae5)"/>
      <path fill="#2e2f42" d="M1.599 28.291h25.587a1.6 1.6 0 0 0 1.599-1.599v-2.133a1.6 1.6 0 0 0-1.599-1.599h-.534V9.667l3.028-2.868a1.608 1.608 0 1 0-.742-.753l-.004-.01-2.282 2.163v-1.23a1.6 1.6 0 0 0-1.599-1.599H3.73a1.6 1.6 0 0 0-1.599 1.599V22.961h-.533A1.6 1.6 0 0 0-.001 24.56v2.134a1.6 1.6 0 0 0 1.599 1.599zM30.384 4.837a.533.533 0 0 1 0 1.066.533.533 0 0 1 0-1.066zM3.199 6.969c0-.295.239-.534.533-.534h21.322c.294 0 .533.239.533.534v2.238l-1.066 1.013V8.035a.532.532 0 0 0-.533-.533H4.798a.533.533 0 0 0-.533.533v13.326c0 .295.239.534.533.534h19.19a.534.534 0 0 0 .533-.534v-9.674l1.066-1.01V22.96H3.199V6.969zm4.797 6.93h-.005a1.6 1.6 0 1 0 1.112 2.748l1.853.93a.532.532 0 0 0 .636-.123l3.938-4.431 3.872 2.902a.532.532 0 0 0 .686-.04l3.365-3.188v8.131H5.33V8.568h18.124v2.66L19.682 14.8l-3.905-2.928a.531.531 0 0 0-.717.072v.001l-3.993 4.493-1.493-.746c.011-.064.018-.129.021-.194a1.6 1.6 0 0 0-1.599-1.599zm.533 1.599a.533.533 0 0 1-1.066 0 .533.533 0 0 1 1.066 0zm3.198 8.528h5.331v.533a.533.533 0 0 1-.533.533h-4.264a.533.533 0 0 1-.533-.533v-.533zm-10.661.534c0-.294.239-.533.533-.533h9.062v.533a1.6 1.6 0 0 0 1.599 1.599h4.265a1.6 1.6 0 0 0 1.599-1.599v-.534h9.061c.295 0 .534.238.534.533v2.133a.534.534 0 0 1-.534.533H1.599a.533.533 0 0 1-.533-.533v-2.133z" style="fill:var(--color1, #2e2f42)"/>
    </symbol>
    <symbol id="icon-instagram-2-1" viewBox="0 0 32 32">
      <path fill="#f4f4fd" d="M31.968 9.408c-.074-1.7-.35-2.87-.744-3.882a7.845 7.845 0 0 0-1.849-2.837l-.001-.001A7.89 7.89 0 0 0 26.596.862l-.054-.018c-1.02-.394-2.18-.67-3.88-.744C20.946.02 20.4 0 16.06 0c-4.346 0-4.89.02-6.596.094-1.7.074-2.868.35-3.88.744a7.844 7.844 0 0 0-2.839 1.849l-.001.001A7.89 7.89 0 0 0 .918 5.466L.9 5.52C.506 6.54.232 7.7.156 9.4c-.08 1.714-.1 2.26-.1 6.602 0 4.346.02 4.89.094 6.596.074 1.7.35 2.87.744 3.882a7.91 7.91 0 0 0 1.85 2.84 7.91 7.91 0 0 0 2.832 1.842c1.02.394 2.18.67 3.882.744 1.706.076 2.25.094 6.596.094 4.344 0 4.888-.02 6.594-.094 1.7-.074 2.87-.35 3.882-.744 2.156-.85 3.832-2.524 4.663-4.625l.019-.055c.394-1.02.67-2.184.744-3.884.076-1.706.094-2.25.094-6.594 0-4.346-.006-4.89-.08-6.596zm-2.88 13.064c-.07 1.564-.332 2.408-.552 2.97a5.34 5.34 0 0 1-3.002 3.027l-.036.013c-.562.218-1.412.48-2.968.548-1.688.076-2.194.094-6.464.094s-4.782-.02-6.464-.094c-1.564-.068-2.408-.33-2.97-.55a4.947 4.947 0 0 1-1.837-1.193l-.001-.001a4.988 4.988 0 0 1-1.183-1.804l-.011-.034c-.22-.562-.48-1.412-.55-2.968-.074-1.688-.094-2.196-.094-6.464 0-4.27.02-4.782.094-6.464.07-1.564.332-2.406.55-2.97a4.888 4.888 0 0 1 1.2-1.838A4.986 4.986 0 0 1 6.64 3.55c.56-.22 1.412-.48 2.968-.55 1.688-.074 2.194-.094 6.464-.094 4.276 0 4.78.02 6.464.094 1.562.07 2.406.332 2.968.55a4.953 4.953 0 0 1 1.84 1.194 4.98 4.98 0 0 1 1.192 1.84c.22.56.482 1.412.55 2.968.076 1.688.094 2.194.094 6.464s-.018 4.77-.092 6.458z" style="fill:var(--color4, #f4f4fd)"/>
      <path fill="#f4f4fd" d="M16.06 7.782a8.222 8.222 0 0 0-.01 16.44h.009a8.222 8.222 0 0 0 .01-16.44h-.009zm0 13.554a5.334 5.334 0 1 1 0-10.668 5.334 5.334 0 1 1 0 10.668zM26.524 7.458a1.92 1.92 0 0 1-3.84 0 1.92 1.92 0 0 1 3.84 0z" style="fill:var(--color4, #f4f4fd)"/>
    </symbol>
    <symbol id="icon-twitter" viewBox="0 0 32 32">
      <path fill="#f4f4fd" d="M32 6.078c-1.1.494-2.376.858-3.712 1.029l-.068.007a6.56 6.56 0 0 0 2.873-3.58l.013-.046a12.858 12.858 0 0 1-4.076 1.574l-.084.014A6.56 6.56 0 0 0 15.598 9.56c0 .52.044 1.02.152 1.496A18.554 18.554 0 0 1 2.255 4.228l-.027-.034a6.496 6.496 0 0 0-.895 3.311 6.562 6.562 0 0 0 2.888 5.442l.023.015a6.465 6.465 0 0 1-2.997-.823l.033.017v.072a6.592 6.592 0 0 0 5.213 6.438l.043.008a6.408 6.408 0 0 1-1.669.216h-.054.003a5.842 5.842 0 0 1-1.279-.118l.037.006c.873 2.624 3.273 4.496 6.121 4.57h.009a13.098 13.098 0 0 1-8.12 2.798h-.015.001c-.538 0-1.054-.024-1.57-.09C2.826 27.902 6.287 29 10.004 29h.063-.003c12.072 0 18.672-10 18.672-18.668 0-.29-.01-.57-.024-.848a13.186 13.186 0 0 0 3.258-3.359l.03-.047z" style="fill:var(--color4, #f4f4fd)"/>
    </symbol>
    <symbol id="icon-facebook" viewBox="0 0 32 32">
      <path fill="#f4f4fd" d="M21.33 5.314h2.92V.226A36.551 36.551 0 0 0 20.125 0h-.138.007C15.782 0 12.9 2.65 12.9 7.52V12H8.25v5.688h4.648V32h5.698V17.69h4.46l.708-5.69h-5.17V8.08c.002-1.644.444-2.768 2.736-2.768z" style="fill:var(--color4, #f4f4fd)"/>
    </symbol>
    <symbol id="icon-linkedin" viewBox="0 0 32 32">
      <path fill="#f4f4fd" d="M31.992 32H32V20.26c0-5.74-1.236-10.164-7.948-10.164-3.226 0-5.392 1.772-6.276 3.45h-.094v-2.912H11.32V32h6.628V21.42c0-2.784.528-5.476 3.976-5.476 3.4 0 3.45 3.178 3.45 5.656V32h6.62zM.528 10.636h6.634V32H.528V10.636zM3.842 0C1.722 0 .002 1.72.002 3.84s1.72 3.88 3.84 3.88c2.122 0 3.844-1.76 3.844-3.88S5.96 0 3.84 0z" style="fill:var(--color4, #f4f4fd)"/>
    </symbol>
    <symbol id="icon-Vector" viewBox="0 0 18 32">
      <path fill="#f4f4fd" d="M13.329 5.313h2.921V.225C15.746.156 14.013 0 11.994 0 7.782 0 4.897 2.649 4.897 7.519V12H.249v5.688h4.648V32h5.699V17.689h4.46l.708-5.688h-5.169V8.082c.001-1.644.444-2.769 2.735-2.769z" style="fill:var(--color4, #f4f4fd)"/>
    </symbol>
    <symbol id="icon-twitter-1" viewBox="0 0 32 32">
      <path fill="#f4f4fd" d="M32 6.078c-1.19.522-2.458.868-3.78 1.036a6.523 6.523 0 0 0 2.886-3.626 13.11 13.11 0 0 1-4.16 1.588A6.574 6.574 0 0 0 22.154 3c-3.632 0-6.556 2.948-6.556 6.562 0 .52.044 1.02.152 1.496-5.454-.266-10.28-2.88-13.522-6.862a6.605 6.605 0 0 0-.898 3.316 6.57 6.57 0 0 0 2.914 5.452 6.479 6.479 0 0 1-2.964-.808v.072c0 3.188 2.274 5.836 5.256 6.446a6.548 6.548 0 0 1-1.72.216 5.8 5.8 0 0 1-1.242-.112c.85 2.598 3.262 4.508 6.13 4.57a13.182 13.182 0 0 1-8.134 2.798c-.538 0-1.054-.024-1.57-.09A18.469 18.469 0 0 0 10.064 29c12.072 0 18.672-10 18.672-18.668 0-.29-.01-.57-.024-.848A13.087 13.087 0 0 0 32 6.078z" style="fill:var(--color4, #f4f4fd)"/>
    </symbol>
  </defs>
</svg>
